<svg width="128" height="128" viewBox="0 0 128 128" fill="none" xmlns="http://www.w3.org/2000/svg">
<rect width="128" height="128" rx="6" fill="#DC2626"/>
<mask id="path-2-inside-1" fill="white">
<rect x="8.12698" y="8.12698" width="112.762" height="111.746" rx="4"/>
</mask>
<rect x="8.12698" y="8.12698" width="112.762" height="111.746" rx="4" stroke="white" stroke-width="10" mask="url(#path-2-inside-1)"/>
<path d="M59.048 20.568C57.512 24.312 54.248 29.88 51.944 33.24L56.744 35.544C59.24 32.376 62.504 27.576 65.288 23.16L59.048 20.568ZM36.872 33.24C35.912 29.88 33.32 24.792 30.632 20.952L25.256 23.16C27.848 27.096 30.344 32.376 31.208 35.736L36.872 33.24ZM78.92 42.936H95.624C93.896 54.84 91.304 65.016 87.176 73.56C83.336 64.632 80.648 54.264 78.824 43.224L78.92 42.936ZM52.712 75.48C51.464 80.664 49.544 84.888 46.664 88.344C42.92 86.52 39.08 84.792 35.24 83.256C36.488 80.76 37.928 78.168 39.272 75.48H52.712ZM108.776 42.936V36.216H80.936C82.28 30.936 83.528 25.368 84.488 19.704L77.192 18.648C74.6 35.544 69.608 51.576 61.544 61.656C63.176 62.808 66.248 65.208 67.304 66.552C69.896 63.096 72.296 59.064 74.312 54.552C76.52 64.344 79.304 73.272 82.952 81.048C78.248 88.248 71.912 94.008 63.752 98.52C60.776 96.312 56.936 93.816 52.712 91.512C55.976 87.192 58.184 81.912 59.528 75.48H67.88V69.528H42.248C43.4 67.224 44.456 64.92 45.512 62.808L43.88 62.424H48.008V48.12C52.616 51.576 58.664 56.184 61.16 58.488L65.096 53.4C62.504 51.48 52.136 44.952 48.008 42.552V42.072H67.496V36.216H48.008V18.648H41.384V36.216H21.704V42.072H39.464C34.76 48.312 27.464 54.264 20.648 57.336C21.992 58.584 23.72 61.08 24.584 62.712C30.44 59.544 36.584 54.264 41.384 48.6V61.848L38.888 61.272C37.736 63.864 36.392 66.648 34.952 69.528H21.128V75.48H31.976C29.384 80.472 26.792 85.368 24.68 89.016L30.824 91.224L32.36 88.536C35.528 89.88 38.696 91.416 41.768 92.952C36.872 96.504 30.152 98.904 21.32 100.44C22.664 101.784 24.104 104.376 24.584 106.296C34.856 104.088 42.44 100.92 48.008 96.312C52.424 98.904 56.264 101.496 59.24 103.896L61.448 101.592C62.696 103.224 63.944 105.336 64.52 106.584C73.928 101.784 81.128 95.64 86.792 88.152C91.496 95.832 97.352 101.976 104.744 106.296C105.704 104.376 108.008 101.592 109.64 100.248C101.96 96.216 95.912 89.688 91.112 81.432C96.968 71.16 100.616 58.488 103.016 42.936H108.776Z" fill="white"/>
</svg>
